<svg width="48" height="48" viewBox="0 0 48 48" fill="none" xmlns="http://www.w3.org/2000/svg">
<path d="M46.5719 14.1956C47.4863 13.2812 48 12.041 48 10.7478C48 5.63733 41.8212 3.07798 38.2075 6.69166L25.6221 19.277C24.7263 20.1729 23.2738 20.1729 22.3779 19.277L9.79248 6.69163C6.17882 3.07796 5.99834e-06 5.6373 5.10627e-06 10.7478C4.88054e-06 12.041 0.513709 13.2811 1.42811 14.1955L17.1396 29.907C20.9285 33.696 27.0716 33.6959 30.8605 29.907L46.5719 14.1956Z" fill="black"/>
<path d="M48 33.0942C48 30.3646 44.6998 28.9976 42.7697 30.9277L35.8632 37.8342C33.9331 39.7643 35.3001 43.0645 38.0297 43.0645H44.9362C46.6283 43.0645 48 41.6928 48 40.0007V33.0942Z" fill="black"/>
<path d="M9.97034 43.0645C12.6999 43.0645 14.0669 39.7643 12.1368 37.8342L5.23029 30.9277C3.30019 28.9976 1.68204e-06 30.3646 1.20558e-06 33.0941L0 40.0007C-2.95368e-07 41.6928 1.37172 43.0645 3.06383 43.0645L9.97034 43.0645Z" fill="black"/>
</svg>
